<mxfile host="drawio-plugin" modified="2023-07-18T06:17:40.280Z" agent="5.0 (Windows NT 6.2; Win64; x64) AppleWebKit/537.36 (KHTML, like Gecko) Chrome/104.0.5112.102 Safari/537.36" etag="miRnc1NCLHwLDe5sT3LT" version="20.5.3" type="embed" pages="2"><diagram name="Варианты использования" id="opFDuFCgedHGNYwQwwKe"><mxGraphModel dx="516" dy="828" grid="1" gridSize="10" guides="1" tooltips="1" connect="1" arrows="1" fold="1" page="1" pageScale="1" pageWidth="827" pageHeight="1169" math="0" shadow="0"><root><mxCell id="0"/><mxCell id="1" parent="0"/><mxCell id="DolEXIRwUZ1UZMZBCSgo-3" style="rounded=0;orthogonalLoop=1;jettySize=auto;html=1;endArrow=none;endFill=0;fontSize=12;" parent="1" source="DolEXIRwUZ1UZMZBCSgo-1" target="DolEXIRwUZ1UZMZBCSgo-2" edge="1"><mxGeometry relative="1" as="geometry"/></mxCell><mxCell id="DolEXIRwUZ1UZMZBCSgo-12" style="edgeStyle=orthogonalEdgeStyle;rounded=0;orthogonalLoop=1;jettySize=auto;html=1;endArrow=none;endFill=0;fontSize=12;" parent="1" source="DolEXIRwUZ1UZMZBCSgo-1" target="DolEXIRwUZ1UZMZBCSgo-11" edge="1"><mxGeometry relative="1" as="geometry"/></mxCell><mxCell id="DolEXIRwUZ1UZMZBCSgo-32" style="edgeStyle=none;shape=connector;rounded=0;orthogonalLoop=1;jettySize=auto;html=1;labelBackgroundColor=default;strokeColor=default;fontFamily=Helvetica;fontSize=11;fontColor=default;endArrow=none;endFill=0;" parent="1" source="DolEXIRwUZ1UZMZBCSgo-1" target="DolEXIRwUZ1UZMZBCSgo-19" edge="1"><mxGeometry relative="1" as="geometry"/></mxCell><mxCell id="DolEXIRwUZ1UZMZBCSgo-1" value="Авторизованный&lt;br style=&quot;font-size: 12px;&quot;&gt;пользователь" style="shape=umlActor;verticalLabelPosition=bottom;verticalAlign=top;html=1;outlineConnect=0;fontSize=12;labelBackgroundColor=default;" parent="1" vertex="1"><mxGeometry x="360" y="360" width="40" height="80" as="geometry"/></mxCell><mxCell id="DolEXIRwUZ1UZMZBCSgo-7" style="rounded=0;orthogonalLoop=1;jettySize=auto;html=1;dashed=1;fontSize=12;" parent="1" source="DolEXIRwUZ1UZMZBCSgo-2" target="DolEXIRwUZ1UZMZBCSgo-6" edge="1"><mxGeometry relative="1" as="geometry"/></mxCell><mxCell id="DolEXIRwUZ1UZMZBCSgo-8" style="rounded=0;orthogonalLoop=1;jettySize=auto;html=1;dashed=1;fontSize=12;" parent="1" source="DolEXIRwUZ1UZMZBCSgo-2" target="DolEXIRwUZ1UZMZBCSgo-5" edge="1"><mxGeometry relative="1" as="geometry"/></mxCell><mxCell id="DolEXIRwUZ1UZMZBCSgo-9" style="rounded=0;orthogonalLoop=1;jettySize=auto;html=1;dashed=1;fontSize=12;" parent="1" source="DolEXIRwUZ1UZMZBCSgo-2" target="DolEXIRwUZ1UZMZBCSgo-4" edge="1"><mxGeometry relative="1" as="geometry"/></mxCell><mxCell id="DolEXIRwUZ1UZMZBCSgo-2" value="Управление записями" style="ellipse;whiteSpace=wrap;html=1;fontSize=12;" parent="1" vertex="1"><mxGeometry x="160" y="420" width="120" height="80" as="geometry"/></mxCell><mxCell id="DolEXIRwUZ1UZMZBCSgo-4" value="Добавление&lt;br style=&quot;font-size: 12px;&quot;&gt;записи" style="ellipse;whiteSpace=wrap;html=1;fontSize=12;" parent="1" vertex="1"><mxGeometry x="160" y="540" width="120" height="80" as="geometry"/></mxCell><mxCell id="DolEXIRwUZ1UZMZBCSgo-5" value="Удаление&lt;br style=&quot;font-size: 12px;&quot;&gt;записи" style="ellipse;whiteSpace=wrap;html=1;fontSize=12;" parent="1" vertex="1"><mxGeometry y="540" width="120" height="80" as="geometry"/></mxCell><mxCell id="DolEXIRwUZ1UZMZBCSgo-6" value="Редактирование&lt;br style=&quot;font-size: 12px;&quot;&gt;записи" style="ellipse;whiteSpace=wrap;html=1;fontSize=12;" parent="1" vertex="1"><mxGeometry y="420" width="120" height="80" as="geometry"/></mxCell><mxCell id="DolEXIRwUZ1UZMZBCSgo-18" style="edgeStyle=none;shape=connector;rounded=0;orthogonalLoop=1;jettySize=auto;html=1;labelBackgroundColor=default;strokeColor=default;fontFamily=Helvetica;fontSize=12;fontColor=default;endArrow=none;endFill=0;" parent="1" source="DolEXIRwUZ1UZMZBCSgo-10" target="DolEXIRwUZ1UZMZBCSgo-14" edge="1"><mxGeometry relative="1" as="geometry"><mxPoint x="540" y="520" as="targetPoint"/></mxGeometry></mxCell><mxCell id="DolEXIRwUZ1UZMZBCSgo-31" style="edgeStyle=none;shape=connector;rounded=0;orthogonalLoop=1;jettySize=auto;html=1;labelBackgroundColor=default;strokeColor=default;fontFamily=Helvetica;fontSize=11;fontColor=default;endArrow=none;endFill=0;" parent="1" source="DolEXIRwUZ1UZMZBCSgo-10" target="DolEXIRwUZ1UZMZBCSgo-19" edge="1"><mxGeometry relative="1" as="geometry"/></mxCell><mxCell id="DolEXIRwUZ1UZMZBCSgo-10" value="Неавторизованный&lt;br style=&quot;font-size: 12px;&quot;&gt;пользователь" style="shape=umlActor;verticalLabelPosition=bottom;verticalAlign=top;html=1;outlineConnect=0;fontSize=12;labelBackgroundColor=default;" parent="1" vertex="1"><mxGeometry x="520" y="360" width="40" height="80" as="geometry"/></mxCell><mxCell id="DolEXIRwUZ1UZMZBCSgo-11" value="Выход из профиля" style="ellipse;whiteSpace=wrap;html=1;fontSize=12;" parent="1" vertex="1"><mxGeometry x="320" y="500" width="120" height="80" as="geometry"/></mxCell><mxCell id="DolEXIRwUZ1UZMZBCSgo-14" value="Вход" style="ellipse;whiteSpace=wrap;html=1;fontSize=12;" parent="1" vertex="1"><mxGeometry x="480" y="500" width="120" height="80" as="geometry"/></mxCell><mxCell id="DolEXIRwUZ1UZMZBCSgo-15" value="Регистрация" style="ellipse;whiteSpace=wrap;html=1;fontSize=12;" parent="1" vertex="1"><mxGeometry x="600" y="360" width="120" height="80" as="geometry"/></mxCell><mxCell id="DolEXIRwUZ1UZMZBCSgo-19" value="Просмотр контента" style="ellipse;whiteSpace=wrap;html=1;fontSize=12;" parent="1" vertex="1"><mxGeometry x="400" y="240" width="120" height="80" as="geometry"/></mxCell><mxCell id="DolEXIRwUZ1UZMZBCSgo-20" value="Поиск по тегам, категории, названию" style="ellipse;whiteSpace=wrap;html=1;fontSize=12;" parent="1" vertex="1"><mxGeometry x="540" y="200" width="120" height="80" as="geometry"/></mxCell><mxCell id="DolEXIRwUZ1UZMZBCSgo-21" value="Просмотр отдельной записи" style="ellipse;whiteSpace=wrap;html=1;fontSize=12;" parent="1" vertex="1"><mxGeometry x="400" y="120" width="120" height="80" as="geometry"/></mxCell><mxCell id="DolEXIRwUZ1UZMZBCSgo-26" style="edgeStyle=none;shape=connector;rounded=0;orthogonalLoop=1;jettySize=auto;html=1;labelBackgroundColor=default;strokeColor=default;fontFamily=Helvetica;fontSize=12;fontColor=default;endArrow=none;endFill=0;" parent="1" source="DolEXIRwUZ1UZMZBCSgo-10" target="DolEXIRwUZ1UZMZBCSgo-15" edge="1"><mxGeometry relative="1" as="geometry"><mxPoint x="540" y="450" as="sourcePoint"/><mxPoint x="490" y="651" as="targetPoint"/></mxGeometry></mxCell><mxCell id="DolEXIRwUZ1UZMZBCSgo-27" value="Скачивание контента" style="ellipse;whiteSpace=wrap;html=1;fontSize=12;" parent="1" vertex="1"><mxGeometry x="260" y="200" width="120" height="80" as="geometry"/></mxCell><mxCell id="DolEXIRwUZ1UZMZBCSgo-28" style="rounded=0;orthogonalLoop=1;jettySize=auto;html=1;dashed=1;fontSize=12;" parent="1" source="DolEXIRwUZ1UZMZBCSgo-19" target="DolEXIRwUZ1UZMZBCSgo-27" edge="1"><mxGeometry relative="1" as="geometry"><mxPoint x="270" y="490" as="sourcePoint"/><mxPoint x="270" y="450" as="targetPoint"/></mxGeometry></mxCell><mxCell id="DolEXIRwUZ1UZMZBCSgo-29" style="rounded=0;orthogonalLoop=1;jettySize=auto;html=1;dashed=1;fontSize=12;" parent="1" source="DolEXIRwUZ1UZMZBCSgo-19" target="DolEXIRwUZ1UZMZBCSgo-21" edge="1"><mxGeometry relative="1" as="geometry"><mxPoint x="280" y="500" as="sourcePoint"/><mxPoint x="280" y="460" as="targetPoint"/></mxGeometry></mxCell><mxCell id="DolEXIRwUZ1UZMZBCSgo-30" style="rounded=0;orthogonalLoop=1;jettySize=auto;html=1;dashed=1;fontSize=12;" parent="1" source="DolEXIRwUZ1UZMZBCSgo-19" target="DolEXIRwUZ1UZMZBCSgo-20" edge="1"><mxGeometry relative="1" as="geometry"><mxPoint x="290" y="510" as="sourcePoint"/><mxPoint x="290" y="470" as="targetPoint"/></mxGeometry></mxCell><mxCell id="29nRA8G2zZygkggENv32-1" value="Добавление тэга" style="ellipse;whiteSpace=wrap;html=1;fontSize=12;" parent="1" vertex="1"><mxGeometry x="160" y="320" width="120" height="80" as="geometry"/></mxCell><mxCell id="29nRA8G2zZygkggENv32-2" style="rounded=0;orthogonalLoop=1;jettySize=auto;html=1;endArrow=none;endFill=0;fontSize=12;" parent="1" source="DolEXIRwUZ1UZMZBCSgo-1" target="29nRA8G2zZygkggENv32-1" edge="1"><mxGeometry relative="1" as="geometry"><mxPoint x="370" y="420" as="sourcePoint"/><mxPoint x="278" y="466" as="targetPoint"/></mxGeometry></mxCell></root></mxGraphModel></diagram><diagram id="jXdtlnsRJTvo6SO641Hz" name="Слои"><mxGraphModel dx="950" dy="668" grid="1" gridSize="10" guides="1" tooltips="1" connect="1" arrows="1" fold="1" page="1" pageScale="1" pageWidth="827" pageHeight="1169" math="0" shadow="0"><root><mxCell id="0"/><mxCell id="1" parent="0"/><mxCell id="-c_tqeL9ze61c_BCjU17-1" value="DB&lt;br&gt;(PostgreSQL)" style="shape=cylinder3;whiteSpace=wrap;html=1;boundedLbl=1;backgroundOutline=1;size=15;fontFamily=Helvetica;fontSize=11;fontColor=default;" parent="1" vertex="1"><mxGeometry x="360" y="520" width="80" height="80" as="geometry"/></mxCell><mxCell id="-c_tqeL9ze61c_BCjU17-13" style="edgeStyle=none;shape=connector;rounded=0;orthogonalLoop=1;jettySize=auto;html=1;labelBackgroundColor=default;strokeColor=default;strokeWidth=2;fontFamily=Helvetica;fontSize=11;fontColor=default;endArrow=none;" parent="1" source="-c_tqeL9ze61c_BCjU17-2" target="-c_tqeL9ze61c_BCjU17-1" edge="1"><mxGeometry relative="1" as="geometry"/></mxCell><mxCell id="-c_tqeL9ze61c_BCjU17-2" value="" style="whiteSpace=wrap;html=1;fontFamily=Helvetica;fontSize=11;fontColor=default;" parent="1" vertex="1"><mxGeometry x="300" y="260" width="200" height="240" as="geometry"/></mxCell><mxCell id="-c_tqeL9ze61c_BCjU17-3" value="Persistence layer&amp;nbsp;" style="rounded=0;whiteSpace=wrap;html=1;fontFamily=Helvetica;fontSize=11;fontColor=default;" parent="1" vertex="1"><mxGeometry x="320" y="440" width="160" height="40" as="geometry"/></mxCell><mxCell id="-c_tqeL9ze61c_BCjU17-5" value="Bussiness layer" style="rounded=0;whiteSpace=wrap;html=1;fontFamily=Helvetica;fontSize=11;fontColor=default;" parent="1" vertex="1"><mxGeometry x="320" y="380" width="160" height="40" as="geometry"/></mxCell><mxCell id="-c_tqeL9ze61c_BCjU17-6" value="Presentation layer" style="rounded=0;whiteSpace=wrap;html=1;fontFamily=Helvetica;fontSize=11;fontColor=default;" parent="1" vertex="1"><mxGeometry x="320" y="320" width="160" height="40" as="geometry"/></mxCell><mxCell id="-c_tqeL9ze61c_BCjU17-12" style="edgeStyle=none;shape=connector;rounded=0;orthogonalLoop=1;jettySize=auto;html=1;labelBackgroundColor=default;strokeColor=default;strokeWidth=2;fontFamily=Helvetica;fontSize=11;fontColor=default;endArrow=none;" parent="1" source="-c_tqeL9ze61c_BCjU17-7" target="-c_tqeL9ze61c_BCjU17-2" edge="1"><mxGeometry relative="1" as="geometry"/></mxCell><mxCell id="-c_tqeL9ze61c_BCjU17-7" value="Client&lt;br&gt;(React)" style="rounded=0;whiteSpace=wrap;html=1;fontFamily=Helvetica;fontSize=11;fontColor=default;" parent="1" vertex="1"><mxGeometry x="320" y="200" width="160" height="40" as="geometry"/></mxCell><mxCell id="-c_tqeL9ze61c_BCjU17-10" style="edgeStyle=none;shape=connector;rounded=0;orthogonalLoop=1;jettySize=auto;html=1;labelBackgroundColor=default;strokeColor=default;strokeWidth=2;fontFamily=Helvetica;fontSize=11;fontColor=default;endArrow=none;" parent="1" source="-c_tqeL9ze61c_BCjU17-8" target="-c_tqeL9ze61c_BCjU17-7" edge="1"><mxGeometry relative="1" as="geometry"/></mxCell><mxCell id="-c_tqeL9ze61c_BCjU17-8" value="" style="shape=umlActor;verticalLabelPosition=bottom;verticalAlign=top;html=1;outlineConnect=0;fontFamily=Helvetica;fontSize=11;fontColor=default;" parent="1" vertex="1"><mxGeometry x="380" y="100" width="40" height="80" as="geometry"/></mxCell><mxCell id="OeEAPkjU-dn7gHD5Zs_N-1" value="REST API&lt;br&gt;(Java Spring Boot)" style="text;html=1;strokeColor=none;fillColor=none;align=center;verticalAlign=middle;whiteSpace=wrap;rounded=0;fontSize=11;fontFamily=Helvetica;fontColor=default;" parent="1" vertex="1"><mxGeometry x="320" y="280" width="160" height="30" as="geometry"/></mxCell><mxCell id="Lc-NgBqmJnyOxbFz0kq5-25" style="edgeStyle=orthogonalEdgeStyle;rounded=0;orthogonalLoop=1;jettySize=auto;html=1;fontSize=12;" parent="1" source="Lc-NgBqmJnyOxbFz0kq5-1" target="Lc-NgBqmJnyOxbFz0kq5-7" edge="1"><mxGeometry relative="1" as="geometry"/></mxCell><mxCell id="Lc-NgBqmJnyOxbFz0kq5-26" value="Entity - объекты" style="edgeLabel;html=1;align=center;verticalAlign=middle;resizable=0;points=[];fontSize=12;" parent="Lc-NgBqmJnyOxbFz0kq5-25" vertex="1" connectable="0"><mxGeometry x="-0.243" y="2" relative="1" as="geometry"><mxPoint x="52" y="-10" as="offset"/></mxGeometry></mxCell><mxCell id="Lc-NgBqmJnyOxbFz0kq5-1" value="" style="rounded=0;whiteSpace=wrap;html=1;fontFamily=Helvetica;fontSize=11;fontColor=default;" parent="1" vertex="1"><mxGeometry x="560" y="520" width="280" height="80" as="geometry"/></mxCell><mxCell id="Lc-NgBqmJnyOxbFz0kq5-2" value="&lt;span style=&quot;font-size: 11px;&quot;&gt;Persistence layer&amp;nbsp;&lt;/span&gt;" style="text;html=1;strokeColor=none;fillColor=none;align=center;verticalAlign=middle;whiteSpace=wrap;rounded=0;horizontal=0;" parent="1" vertex="1"><mxGeometry x="570" y="527.5" width="30" height="65" as="geometry"/></mxCell><mxCell id="Lc-NgBqmJnyOxbFz0kq5-3" value="Media&lt;br&gt;Repository" style="whiteSpace=wrap;html=1;aspect=fixed;" parent="1" vertex="1"><mxGeometry x="610" y="530" width="60" height="60" as="geometry"/></mxCell><mxCell id="Lc-NgBqmJnyOxbFz0kq5-4" value="User&lt;br&gt;Repository" style="whiteSpace=wrap;html=1;aspect=fixed;" parent="1" vertex="1"><mxGeometry x="680" y="530" width="60" height="60" as="geometry"/></mxCell><mxCell id="Lc-NgBqmJnyOxbFz0kq5-5" value="Tag&lt;br&gt;Repository" style="whiteSpace=wrap;html=1;aspect=fixed;" parent="1" vertex="1"><mxGeometry x="750" y="530" width="60" height="60" as="geometry"/></mxCell><mxCell id="Lc-NgBqmJnyOxbFz0kq5-6" value="&lt;font style=&quot;font-size: 30px;&quot;&gt;...&lt;/font&gt;" style="text;html=1;strokeColor=none;fillColor=none;align=center;verticalAlign=bottom;whiteSpace=wrap;rounded=0;horizontal=0;" parent="1" vertex="1"><mxGeometry x="820" y="550" width="20" height="30" as="geometry"/></mxCell><mxCell id="Lc-NgBqmJnyOxbFz0kq5-27" style="edgeStyle=orthogonalEdgeStyle;rounded=0;orthogonalLoop=1;jettySize=auto;html=1;fontSize=12;" parent="1" source="Lc-NgBqmJnyOxbFz0kq5-7" target="Lc-NgBqmJnyOxbFz0kq5-17" edge="1"><mxGeometry relative="1" as="geometry"/></mxCell><mxCell id="Lc-NgBqmJnyOxbFz0kq5-28" value="DTO - объекты" style="edgeLabel;html=1;align=center;verticalAlign=middle;resizable=0;points=[];fontSize=12;" parent="Lc-NgBqmJnyOxbFz0kq5-27" vertex="1" connectable="0"><mxGeometry x="-0.2526" y="2" relative="1" as="geometry"><mxPoint x="52" y="-10" as="offset"/></mxGeometry></mxCell><mxCell id="Lc-NgBqmJnyOxbFz0kq5-7" value="" style="rounded=0;whiteSpace=wrap;html=1;fontFamily=Helvetica;fontSize=11;fontColor=default;" parent="1" vertex="1"><mxGeometry x="560" y="360" width="280" height="80" as="geometry"/></mxCell><mxCell id="Lc-NgBqmJnyOxbFz0kq5-8" value="&lt;span style=&quot;font-size: 11px;&quot;&gt;Bussiness layer&lt;/span&gt;" style="text;html=1;strokeColor=none;fillColor=none;align=center;verticalAlign=middle;whiteSpace=wrap;rounded=0;horizontal=0;" parent="1" vertex="1"><mxGeometry x="570" y="367.5" width="30" height="65" as="geometry"/></mxCell><mxCell id="Lc-NgBqmJnyOxbFz0kq5-9" value="Media&lt;br&gt;Service" style="whiteSpace=wrap;html=1;aspect=fixed;" parent="1" vertex="1"><mxGeometry x="610" y="370" width="60" height="60" as="geometry"/></mxCell><mxCell id="Lc-NgBqmJnyOxbFz0kq5-10" value="User&lt;br&gt;Service" style="whiteSpace=wrap;html=1;aspect=fixed;" parent="1" vertex="1"><mxGeometry x="680" y="370" width="60" height="60" as="geometry"/></mxCell><mxCell id="Lc-NgBqmJnyOxbFz0kq5-11" value="Tag&lt;br&gt;Service" style="whiteSpace=wrap;html=1;aspect=fixed;" parent="1" vertex="1"><mxGeometry x="750" y="370" width="60" height="60" as="geometry"/></mxCell><mxCell id="Lc-NgBqmJnyOxbFz0kq5-12" value="&lt;font style=&quot;font-size: 30px;&quot;&gt;...&lt;/font&gt;" style="text;html=1;strokeColor=none;fillColor=none;align=center;verticalAlign=bottom;whiteSpace=wrap;rounded=0;horizontal=0;" parent="1" vertex="1"><mxGeometry x="820" y="390" width="20" height="30" as="geometry"/></mxCell><mxCell id="Lc-NgBqmJnyOxbFz0kq5-13" value="" style="strokeWidth=2;html=1;shape=mxgraph.flowchart.annotation_2;align=left;labelPosition=right;pointerEvents=1;fontSize=30;" parent="1" vertex="1"><mxGeometry x="840" y="520" width="40" height="80" as="geometry"/></mxCell><mxCell id="Lc-NgBqmJnyOxbFz0kq5-14" value="" style="strokeWidth=2;html=1;shape=mxgraph.flowchart.annotation_2;align=left;labelPosition=right;pointerEvents=1;fontSize=30;" parent="1" vertex="1"><mxGeometry x="840" y="360" width="40" height="80" as="geometry"/></mxCell><mxCell id="Lc-NgBqmJnyOxbFz0kq5-15" value="&lt;font style=&quot;font-size: 12px;&quot;&gt;Работа с базой данных: поиск, извлечение,&amp;nbsp; изменнение, удаление, сохранение...&lt;/font&gt;" style="text;html=1;strokeColor=none;fillColor=none;align=left;verticalAlign=middle;whiteSpace=wrap;rounded=0;fontSize=12;" parent="1" vertex="1"><mxGeometry x="870" y="530" width="170" height="60" as="geometry"/></mxCell><mxCell id="Lc-NgBqmJnyOxbFz0kq5-16" value="&lt;font style=&quot;font-size: 12px;&quot;&gt;Бизнес-логика: запросы, связанные с конкретными бизнес-процессами, например, получение записи со всеми тэгами&lt;/font&gt;" style="text;html=1;strokeColor=none;fillColor=none;align=left;verticalAlign=middle;whiteSpace=wrap;rounded=0;fontSize=12;" parent="1" vertex="1"><mxGeometry x="870" y="370" width="170" height="60" as="geometry"/></mxCell><mxCell id="Lc-NgBqmJnyOxbFz0kq5-17" value="" style="rounded=0;whiteSpace=wrap;html=1;fontFamily=Helvetica;fontSize=11;fontColor=default;" parent="1" vertex="1"><mxGeometry x="560" y="200" width="280" height="80" as="geometry"/></mxCell><mxCell id="Lc-NgBqmJnyOxbFz0kq5-18" value="&lt;span style=&quot;font-size: 11px;&quot;&gt;Presentation&lt;br&gt;&lt;/span&gt;&lt;span style=&quot;font-size: 11px;&quot;&gt;layer&lt;/span&gt;" style="text;html=1;strokeColor=none;fillColor=none;align=center;verticalAlign=middle;whiteSpace=wrap;rounded=0;horizontal=0;" parent="1" vertex="1"><mxGeometry x="570" y="207.5" width="30" height="65" as="geometry"/></mxCell><mxCell id="Lc-NgBqmJnyOxbFz0kq5-19" value="Media&lt;br&gt;Controller" style="whiteSpace=wrap;html=1;aspect=fixed;" parent="1" vertex="1"><mxGeometry x="610" y="210" width="60" height="60" as="geometry"/></mxCell><mxCell id="Lc-NgBqmJnyOxbFz0kq5-20" value="User&lt;br&gt;Controller" style="whiteSpace=wrap;html=1;aspect=fixed;" parent="1" vertex="1"><mxGeometry x="680" y="210" width="60" height="60" as="geometry"/></mxCell><mxCell id="Lc-NgBqmJnyOxbFz0kq5-21" value="Tag&lt;br&gt;Controller" style="whiteSpace=wrap;html=1;aspect=fixed;" parent="1" vertex="1"><mxGeometry x="750" y="210" width="60" height="60" as="geometry"/></mxCell><mxCell id="Lc-NgBqmJnyOxbFz0kq5-22" value="&lt;font style=&quot;font-size: 30px;&quot;&gt;...&lt;/font&gt;" style="text;html=1;strokeColor=none;fillColor=none;align=center;verticalAlign=bottom;whiteSpace=wrap;rounded=0;horizontal=0;" parent="1" vertex="1"><mxGeometry x="820" y="230" width="20" height="30" as="geometry"/></mxCell><mxCell id="Lc-NgBqmJnyOxbFz0kq5-23" value="" style="strokeWidth=2;html=1;shape=mxgraph.flowchart.annotation_2;align=left;labelPosition=right;pointerEvents=1;fontSize=30;" parent="1" vertex="1"><mxGeometry x="840" y="200" width="40" height="80" as="geometry"/></mxCell><mxCell id="Lc-NgBqmJnyOxbFz0kq5-24" value="&lt;font style=&quot;font-size: 12px;&quot;&gt;Бизнес-логика: запросы, связанные с конкретными бизнес-процессами, например, получение записи со всеми тэгами&lt;/font&gt;" style="text;html=1;strokeColor=none;fillColor=none;align=left;verticalAlign=middle;whiteSpace=wrap;rounded=0;fontSize=12;" parent="1" vertex="1"><mxGeometry x="870" y="210" width="170" height="60" as="geometry"/></mxCell></root></mxGraphModel></diagram></mxfile>